<svg width="29" height="20" viewBox="0 0 29 20" fill="none" xmlns="http://www.w3.org/2000/svg">
<g clip-path="url(#clip0_5046_2386)">
<path d="M28.5421 4.29488C28.6023 4.29489 28.6618 4.28322 28.7174 4.26053C28.7729 4.23784 28.8234 4.20457 28.8659 4.16263C28.9084 4.12069 28.9422 4.0709 28.9652 4.0161C28.9882 3.9613 29 3.90257 29 3.84326V2.08576C29 0.933859 28.0499 -0.0032959 26.882 -0.0032959H2.11797C0.950094 -0.00324003 0 0.933858 0 2.08582V17.9141C0 19.0661 0.950094 20.0033 2.11797 20.0033H26.8821C28.05 20.0033 29.0001 19.0661 29 17.9141V5.30862C29 5.24931 28.9882 5.19058 28.9652 5.13578C28.9422 5.08098 28.9084 5.03119 28.8659 4.98925C28.8234 4.94731 28.7729 4.91404 28.7174 4.89135C28.6618 4.86866 28.6023 4.85699 28.5421 4.857C28.482 4.85699 28.4224 4.86866 28.3669 4.89135C28.3113 4.91404 28.2608 4.94731 28.2183 4.98925C28.1758 5.03119 28.1421 5.08098 28.1191 5.13578C28.0961 5.19058 28.0842 5.24931 28.0842 5.30862V17.9141C28.0842 18.568 27.5449 19.1 26.882 19.1H2.11797C1.4551 19.1 0.915769 18.568 0.915769 17.9141V2.08582C0.915769 1.43196 1.4551 0.900004 2.11797 0.900004H26.882C27.5449 0.900004 28.0842 1.43196 28.0842 2.08582V3.84331C28.0842 3.90262 28.0961 3.96135 28.1191 4.01614C28.1421 4.07093 28.1758 4.12072 28.2183 4.16265C28.2609 4.20459 28.3113 4.23785 28.3669 4.26053C28.4224 4.28322 28.482 4.29489 28.5421 4.29488Z" fill="#3C3C42"/>
<path d="M10.5684 8.32615H9.63748V9.33665H10.5684V9.33676C10.937 9.33676 11.1931 9.20743 11.1931 8.8438C11.1931 8.45559 10.9182 8.32615 10.5684 8.32615ZM10.5372 6.74268H9.63742V7.58681H10.5372C10.7371 7.58681 11.0119 7.48201 11.0119 7.16782C11.0119 6.84742 10.7807 6.74268 10.5372 6.74268ZM14.7912 7.07536H14.7787L14.2727 8.61592H15.2847L14.7912 7.07536ZM7.34319 11.8045H6.70654V12.4877H7.37751C7.61846 12.4877 7.74755 12.3604 7.74755 12.1314C7.74755 11.9065 7.56686 11.8045 7.34319 11.8045ZM10.2557 12.0124H10.2472L9.89871 13.0733H10.5957L10.2557 12.0124ZM25.1118 11.8045H24.4752V12.4877H25.1464C25.3872 12.4877 25.5162 12.3604 25.5162 12.1314C25.5162 11.9065 25.3356 11.8045 25.1118 11.8045Z" fill="#3C3C42"/>
<path d="M27.2212 13.7812C27.2134 13.7256 27.206 13.6385 27.1993 13.5211C27.1979 13.496 27.1967 13.4745 27.1955 13.4576C27.1951 13.4517 27.1946 13.4458 27.1941 13.4398C27.1721 13.1934 27.1217 12.9862 27.0528 12.8118C27.1686 12.5755 27.232 12.3076 27.232 12.0251C27.232 11.6103 27.1 11.246 26.8667 10.9581C27.0462 10.8153 27.1646 10.611 27.1981 10.3859C27.2315 10.1608 27.1776 9.93155 27.0472 9.74394L25.6086 7.67533L26.7461 6.48097C26.9104 6.31293 27.002 6.08852 27.0017 5.8551C27.0017 5.35627 26.5918 4.95186 26.086 4.95186H24.6426C24.3754 4.95186 24.1215 5.067 23.9475 5.26705L23.9072 5.31337C23.822 5.20104 23.7114 5.10987 23.5842 5.04711C23.457 4.98435 23.3167 4.95174 23.1745 4.95186H22.0124C21.8702 4.95186 21.736 4.98482 21.6159 5.04186C21.4924 4.98273 21.3568 4.95196 21.2195 4.95186H20.126C19.7957 4.95186 19.5062 5.12437 19.3451 5.38314C19.2632 5.25139 19.1485 5.14255 19.0117 5.06704C18.875 4.99153 18.721 4.95187 18.5643 4.95186H17.3709C16.8652 4.95186 16.4551 5.35627 16.4551 5.8551V6.11633L16.2362 5.53873C16.1708 5.36637 16.0536 5.21781 15.9003 5.11293C15.747 5.00805 15.5649 4.95186 15.3783 4.95186H14.1977C14.0111 4.95188 13.829 5.00809 13.6757 5.11296C13.5224 5.21784 13.4052 5.36639 13.3398 5.53873L13.0151 6.39522C12.8844 5.92253 12.5836 5.53862 12.1351 5.28689C11.7385 5.06426 11.2314 4.95135 10.6277 4.95135H10.6276C10.6034 4.95135 10.5791 4.95152 10.555 4.95191H8.47533C8.34936 4.95191 8.22945 4.977 8.12025 5.02236C8.00745 4.97541 7.88624 4.95129 7.76381 4.95141H2.92016C2.41436 4.95141 2.00439 5.35583 2.00439 5.85465V6.81125C2.00439 6.94818 2.03611 7.07751 2.09145 7.19388C2.03425 7.31355 2.00453 7.4442 2.00439 7.57651V8.5331C2.00439 8.67003 2.03611 8.79936 2.09145 8.91573C2.03426 9.0354 2.00453 9.16605 2.00439 9.29836V10.2549C2.00439 10.4226 2.05146 10.579 2.13223 10.7136C2.04857 10.8523 2.00441 11.0108 2.00439 11.1722V11.8512C2.00439 12.35 2.41436 12.7544 2.92016 12.7544H2.92079V14.202C2.92079 14.7008 3.33087 15.1052 3.83656 15.1052H4.63666C4.88328 15.1052 5.10667 15.0086 5.27133 14.8523C5.44155 15.0147 5.66916 15.1054 5.90599 15.1052H6.70632C6.92275 15.1052 7.12167 15.0312 7.27845 14.9073C7.44082 15.0355 7.64261 15.1053 7.85058 15.1052H8.64236C8.65392 15.1052 8.66542 15.1044 8.67697 15.1039C8.68405 15.1041 8.69096 15.1052 8.69815 15.1052H9.52001C9.81024 15.1052 10.0768 14.9703 10.2471 14.7513C10.3325 14.8614 10.4426 14.9506 10.5686 15.012C10.6947 15.0733 10.8334 15.1053 10.9739 15.1052H11.8086C11.847 15.1052 11.8849 15.1028 11.9225 15.0982C11.959 15.1027 11.9957 15.1051 12.0324 15.1052H12.7854C12.9786 15.1055 13.167 15.0453 13.3232 14.9331C13.4796 15.045 13.6678 15.1053 13.861 15.1052H14.6827C14.8871 15.1052 15.0753 15.0384 15.2277 14.9267C15.5566 15.0831 15.9479 15.1689 16.3864 15.1689C16.8278 15.1689 17.2285 15.0874 17.5638 14.934C17.7193 15.0453 17.9065 15.1053 18.0987 15.1052H18.899C19.3943 15.1052 19.7969 14.7169 19.8132 14.2322C19.8296 14.7169 20.232 15.1052 20.7275 15.1052H23.2185C23.2974 15.1052 23.3735 15.0943 23.4465 15.0758C23.5195 15.0944 23.5956 15.1052 23.6746 15.1052H24.4748C24.6913 15.1052 24.8902 15.0311 25.047 14.9072C25.2094 15.0354 25.4112 15.1052 25.6192 15.1052H26.4108C26.7779 15.1052 27.1094 14.8889 27.2534 14.5558C27.3067 14.4324 27.3315 14.2989 27.326 14.1649C27.3204 14.0309 27.2846 13.8998 27.2212 13.7812ZM2.92016 6.67326V5.85471H7.76375V6.81131H2.92016V6.67326ZM2.92016 8.39506V7.57651H7.76375V8.5331H2.92016V8.39506ZM2.92016 9.43629V9.29819H7.76375V10.2547H2.92016V9.43629ZM5.55317 11.8512H4.63666V14.202H3.83656V11.8512H2.92016V11.1722H5.55317V11.8512ZM7.85052 14.2021V14.2021C7.82702 14.1674 7.81025 14.1098 7.79773 14.0459C7.79773 14.0457 7.79773 14.0454 7.79762 14.0452C7.77638 13.9359 7.76794 13.8081 7.76233 13.7413L7.76029 13.7183C7.73866 13.4127 7.68723 13.0988 7.31289 13.0988H6.70626V14.202H5.90587V11.1722H7.47194C7.50581 11.1722 7.53951 11.1731 7.57315 11.1751C7.59592 11.1764 7.61847 11.1788 7.64101 11.181C7.65177 11.182 7.6627 11.1825 7.67341 11.1838C7.70088 11.187 7.72807 11.1914 7.75508 11.196C7.76063 11.197 7.7663 11.1975 7.77174 11.1985C8.19496 11.2757 8.54743 11.5285 8.54743 12.0251C8.54743 12.25 8.4721 12.4667 8.32002 12.6203L8.31996 12.6203L8.31866 12.6216C8.30325 12.637 8.287 12.6516 8.27012 12.6656C8.26462 12.6701 8.2589 12.6743 8.2533 12.6788C8.22152 12.7038 8.18756 12.7259 8.1518 12.745C8.14528 12.7485 8.13877 12.7522 8.13208 12.7556C8.11067 12.7662 8.08875 12.7762 8.0657 12.785V12.7933C8.08405 12.7976 8.10144 12.8031 8.11832 12.8091C8.12376 12.8111 8.12903 12.8132 8.13435 12.8154C8.14585 12.8199 8.15701 12.8249 8.16788 12.8302C8.17326 12.8328 8.17864 12.8355 8.18385 12.8383C8.19626 12.845 8.20815 12.8523 8.21976 12.86C8.2222 12.8616 8.22481 12.8631 8.22718 12.8647L8.22724 12.8647C8.42588 13.0036 8.49209 13.2849 8.51311 13.5189C8.52172 13.6461 8.53474 14.0917 8.64225 14.2021H7.85052ZM11.1166 14.2021H10.9739L10.7847 13.6588H9.71344L9.55213 14.1117L9.51996 14.2021H8.6981L9.84672 11.1722H10.6598L11.8085 14.2021H11.1166ZM11.6326 10.0789L11.6323 10.079C11.5596 10.1106 11.4849 10.1372 11.4086 10.1587L11.4047 10.1599C11.3258 10.1819 11.2458 10.1996 11.165 10.213L11.1563 10.2144C11.116 10.221 11.0751 10.2269 11.0335 10.2317C11.0297 10.2322 11.0258 10.2325 11.022 10.233C10.983 10.2374 10.9437 10.2412 10.9039 10.2442L10.8923 10.2451C10.8514 10.2481 10.8104 10.2503 10.7695 10.2518C10.7608 10.252 10.7523 10.2524 10.7437 10.2526C10.7021 10.2539 10.6604 10.2548 10.6181 10.2548H8.47521V5.85521H10.5619C10.5836 5.85488 10.6056 5.85465 10.6274 5.85465L10.6309 5.85471C10.6406 5.85471 10.6504 5.85482 10.6603 5.85493C10.6743 5.85505 10.6883 5.8551 10.7024 5.85544C10.7126 5.8556 10.7228 5.85605 10.733 5.85627C10.7466 5.85672 10.7603 5.857 10.7739 5.85756C10.7844 5.8579 10.7949 5.85851 10.8054 5.85901C10.8188 5.85968 10.8322 5.8603 10.8455 5.86108L10.877 5.86326C10.8903 5.86421 10.9037 5.86505 10.9169 5.86622C10.9275 5.86711 10.938 5.86812 10.9485 5.86918C10.9616 5.87046 10.9748 5.87158 10.9879 5.87298C11.0114 5.87566 11.0349 5.87849 11.0584 5.88147C11.069 5.88287 11.0795 5.88454 11.09 5.88605C11.1027 5.88784 11.1155 5.88979 11.1281 5.89181C11.1386 5.89348 11.1492 5.89538 11.1597 5.89722C11.2175 5.90724 11.2749 5.91969 11.3317 5.93454C11.3418 5.93717 11.3518 5.94002 11.3618 5.94287C11.3736 5.94616 11.3853 5.94957 11.397 5.95309C11.4069 5.95611 11.4166 5.95924 11.4264 5.96236C11.438 5.96605 11.4495 5.96991 11.4609 5.97382C11.4705 5.97717 11.48 5.98069 11.4896 5.98426C11.5009 5.98834 11.5119 5.99264 11.5231 5.99695L11.5511 6.00845C11.562 6.01303 11.5728 6.01773 11.5834 6.02253C11.5926 6.02661 11.6016 6.03091 11.6106 6.03516C11.6404 6.04933 11.6695 6.06476 11.698 6.08142C11.7065 6.08633 11.7149 6.09136 11.7232 6.09644C11.7411 6.10758 11.7587 6.11917 11.776 6.13119C11.7853 6.13767 11.7944 6.14443 11.8034 6.15119C11.8111 6.15706 11.8188 6.16281 11.8263 6.16885C11.8351 6.17583 11.8436 6.18309 11.8521 6.19041C11.8594 6.19667 11.8668 6.20292 11.8738 6.2094C11.8822 6.217 11.8901 6.22482 11.8981 6.23264C11.905 6.23935 11.9118 6.24605 11.9185 6.25298C11.9262 6.26114 11.9337 6.26952 11.9411 6.27795C11.9475 6.2851 11.954 6.29231 11.9601 6.29968C11.9674 6.3084 11.9741 6.31745 11.9811 6.32644C11.9869 6.3341 11.9929 6.3417 11.9985 6.34963C12.0051 6.3589 12.0115 6.36862 12.0178 6.37834C12.0231 6.3865 12.0286 6.39449 12.0336 6.40287C12.0397 6.41281 12.0452 6.4232 12.051 6.43354C12.0557 6.44214 12.0606 6.45064 12.0651 6.45957C12.0706 6.4703 12.0755 6.48136 12.0806 6.49248C12.0848 6.50153 12.0891 6.51041 12.093 6.51963C12.0978 6.53108 12.1021 6.54304 12.1065 6.55488C12.1101 6.56432 12.1138 6.57365 12.117 6.58337C12.1211 6.59561 12.1246 6.60834 12.1284 6.62097C12.1314 6.63091 12.1345 6.64058 12.1371 6.6508C12.1406 6.66404 12.1434 6.67784 12.1463 6.69153C12.1485 6.70164 12.151 6.71153 12.1529 6.72186C12.1557 6.73645 12.1577 6.7517 12.1599 6.76678C12.1613 6.77678 12.1632 6.78656 12.1645 6.79678C12.1665 6.81393 12.1678 6.83186 12.1692 6.84969C12.17 6.85835 12.171 6.86667 12.1715 6.8755C12.173 6.90242 12.1739 6.93002 12.1739 6.95835C12.1739 7.35271 11.9364 7.6731 11.5866 7.84561C11.6217 7.85561 11.6555 7.86757 11.6886 7.88053C11.6982 7.88427 11.7075 7.88841 11.7169 7.89237C11.7412 7.90265 11.7649 7.91371 11.788 7.92545C11.7967 7.92991 11.8054 7.93422 11.8139 7.93891C11.8428 7.95466 11.8709 7.97137 11.8977 7.98947C11.8988 7.99019 11.8999 7.99075 11.901 7.99153C11.9309 8.01187 11.9595 8.03382 11.9868 8.05695C11.9891 8.05885 11.9912 8.06092 11.9934 8.06299C12.0182 8.08433 12.0417 8.10684 12.064 8.13025C12.0668 8.1331 12.0695 8.13595 12.0721 8.13885C12.1462 8.21836 12.207 8.30897 12.2523 8.40729C12.3187 8.55115 12.3551 8.71327 12.3551 8.88707C12.3549 9.52009 12.0694 9.8873 11.6326 10.0789ZM14.6826 14.2021H13.861L12.7939 12.3137H12.7852V14.2021H12.0323V11.1722H12.854L13.9209 13.0393H13.9297V11.1722H14.6826V14.2021ZM14.0037 9.46612L13.7225 10.2548H12.5294L14.1975 5.85516H15.3781L16.4549 8.69517L17.0463 10.2548H15.8342L15.5593 9.46612H14.0037ZM16.9058 14.2091L16.9028 14.2098C16.8706 14.2175 16.8383 14.2242 16.8057 14.2301L16.802 14.2308C16.737 14.2423 16.6716 14.2508 16.6058 14.2564L16.592 14.2576C16.5556 14.2605 16.5192 14.2626 16.4827 14.2639C16.4506 14.2651 16.4185 14.2657 16.3864 14.2657C16.354 14.2657 16.3218 14.2649 16.2899 14.2636L16.2713 14.2628C16.2404 14.2613 16.2096 14.2591 16.1788 14.2564L16.1632 14.2549C16.1332 14.2519 16.1034 14.2483 16.0736 14.2441L16.068 14.2433C16.0374 14.2388 16.0068 14.2334 15.9764 14.2273L15.9614 14.2243C15.9316 14.2182 15.902 14.2112 15.8726 14.2035L15.8653 14.2014C15.8367 14.1937 15.8084 14.1852 15.7804 14.1759C15.7781 14.1752 15.7759 14.1746 15.7738 14.1738C15.7455 14.1643 15.7178 14.1538 15.6906 14.1427L15.6791 14.1379C15.6517 14.1264 15.6248 14.1141 15.5987 14.1009L15.5985 14.1009C15.2742 13.9368 15.0553 13.6424 15.0527 13.1836H15.8529C15.8701 13.54 16.0938 13.6545 16.4337 13.6545C16.6745 13.6545 16.9242 13.5697 16.9242 13.3447C16.9242 13.0774 16.4853 13.0265 16.0423 12.9033C16.0074 12.8935 15.9726 12.8832 15.938 12.8724L15.9183 12.8662C15.8077 12.8311 15.6988 12.7895 15.599 12.737L15.5987 12.7369C15.34 12.6011 15.1431 12.3924 15.1431 12.0293C15.1431 11.6435 15.3727 11.3948 15.6783 11.2543C15.6815 11.2529 15.6845 11.2514 15.6875 11.25C15.7138 11.2383 15.7406 11.2273 15.7679 11.217C15.7717 11.2156 15.7755 11.2141 15.7794 11.2127C15.8069 11.2026 15.8349 11.1932 15.8632 11.1847C15.8662 11.1837 15.8692 11.1829 15.8721 11.182C16.0415 11.1319 16.2228 11.1085 16.3952 11.1085C16.538 11.1085 16.6811 11.1247 16.8165 11.158H16.8165C17.2603 11.267 17.6222 11.5609 17.6257 12.0844H16.8254C16.8383 11.8086 16.5759 11.7195 16.3306 11.7195C16.1586 11.7195 15.9434 11.7789 15.9434 11.9784C15.9434 12.2117 16.3865 12.2541 16.8339 12.3773C16.8634 12.3855 16.893 12.3941 16.9223 12.403L16.9273 12.4046C17.3378 12.5307 17.7246 12.7423 17.7246 13.2512C17.7244 13.8171 17.3649 14.0995 16.9058 14.2091ZM20.3619 11.8045H18.8991V12.4241H20.1639V13.035H18.8991V14.2021H18.0988V11.1722H20.3619V11.8045ZM20.026 10.2549V10.2548L18.4766 7.51282H18.4642V10.2548H17.3707V5.85521H18.5641L20.1135 8.56651H20.1259V5.85521H21.2193V10.2549H20.026ZM23.2186 14.2021H20.7276V11.1723H23.1756V11.8045H21.5278V12.335H23.0336V12.946H21.5278V13.5232H23.2186V14.2021ZM23.6491 8.40634L23.1743 8.8993V10.2548H22.0122V5.85521H23.1743V7.54366L24.6424 5.85521H26.0856L24.4363 7.58678L26.2918 10.2549H24.8488L23.6491 8.40634ZM25.6193 14.2021C25.5504 14.1002 25.5376 13.8031 25.529 13.7183C25.5075 13.4127 25.4559 13.0988 25.0816 13.0988H24.475V14.202H23.6748V11.1722H25.2408C25.7829 11.1722 26.3162 11.4141 26.3162 12.025C26.3162 12.3518 26.1572 12.6616 25.8344 12.7847V12.7931C26.1614 12.8696 26.2561 13.2302 26.2819 13.5188C26.2906 13.6461 26.3033 14.0916 26.411 14.2021H25.6193Z" fill="#3C3C42"/>
</g>
<defs>
<clipPath id="clip0_5046_2386">
<rect width="29" height="20" fill="white"/>
</clipPath>
</defs>
</svg>
