<svg width="24" height="24" viewBox="0 0 24 24" fill="none" xmlns="http://www.w3.org/2000/svg">
<path d="M20.9324 11.6507C20.9324 11.5194 20.9851 11.214 21.4728 11.214H22.3066C22.6672 11.214 22.413 10.9119 22.413 10.9119L20.1396 7.32533C20.1319 7.3167 20.0166 7.17912 19.9046 7.34515L17.6584 10.8977C17.6584 10.8977 17.3766 11.214 17.763 11.214H18.6065C18.8576 11.214 19.146 11.2748 19.146 11.7493C19.146 15.828 15.8131 19.1463 11.7163 19.1463C7.61934 19.1463 4.2861 15.8133 4.2861 11.7163C4.2861 7.61934 7.61934 4.28616 11.7163 4.28616C12.8116 4.28616 13.8659 4.51871 14.8501 4.97728C14.968 5.03252 15.0965 5.06113 15.2266 5.06106C15.5727 5.06106 15.8909 4.8585 16.037 4.5449C16.2449 4.09848 16.051 3.56613 15.6047 3.35817C14.3824 2.78878 13.0743 2.5 11.7164 2.5C6.6345 2.5 2.5 6.63438 2.5 11.7163C2.5 16.7982 6.6345 20.9326 11.7164 20.9326C16.7781 20.9326 20.9124 16.8146 20.9321 11.7529C20.932 11.7526 20.9324 11.6762 20.9324 11.6507Z" fill="#4F5359"/>
<path d="M12.4525 10.9307C11.4847 10.5428 11.2048 10.308 11.2048 9.88434C11.2048 9.54522 11.4617 9.14924 12.1857 9.14924C12.8261 9.14924 13.3173 9.40166 13.3217 9.40393C13.3731 9.43147 13.4304 9.44598 13.4887 9.44619C13.629 9.44619 13.7529 9.36139 13.8043 9.23015L13.9802 8.78028C14.0414 8.61651 13.9484 8.4736 13.83 8.42244C13.4358 8.25075 12.6651 8.11794 12.6572 8.11655C12.6447 8.11441 12.6017 8.10515 12.6017 8.05468L12.5991 7.4023C12.5991 7.20582 12.4351 7.0459 12.2336 7.0459H11.9182C11.7168 7.0459 11.5528 7.20582 11.5528 7.40239L11.5536 8.08837C11.5536 8.14087 11.4967 8.16367 11.4759 8.16863C10.5031 8.40033 9.89514 9.11286 9.89514 10.0118C9.89514 11.1322 10.8213 11.6386 11.8214 12.0186C12.6209 12.3325 12.947 12.6509 12.947 13.1176C12.947 13.6256 12.485 13.9804 11.8235 13.9804C11.2585 13.9804 10.4938 13.6222 10.4861 13.6186C10.438 13.5956 10.3853 13.5837 10.332 13.5836C10.1863 13.5836 10.0596 13.6717 10.009 13.8079L9.84101 14.2627C9.78128 14.4325 9.87322 14.5704 9.99092 14.6317C10.4605 14.8763 11.3694 15.0196 11.4096 15.0259C11.4205 15.0276 11.4759 15.047 11.4759 15.0975V15.7805C11.4759 15.9769 11.6399 16.1368 11.8414 16.1368H12.1677C12.3692 16.1368 12.5332 15.9769 12.5332 15.7805V15.0617C12.5332 14.9945 12.5828 14.9886 12.593 14.9861C13.6292 14.7535 14.2677 13.9951 14.2677 13.0431C14.2677 12.0652 13.7247 11.4334 12.4525 10.9307Z" fill="#4F5359"/>
</svg>
