<svg width="27" height="25" viewBox="0 0 27 25" fill="none" xmlns="http://www.w3.org/2000/svg">
<path d="M1.29688 19.3594L5.48633 21.3916V15.7188L1.29688 13.6865V19.3594ZM17.2197 15.7188V21.3916L21.4092 19.3594V13.6865L17.2197 15.7188ZM6.60547 15.7188V21.3896L10.793 19.3594V13.6865L6.60547 15.7188ZM11.9131 19.3594L16.1006 21.3896V15.7188L11.9131 13.6895V19.3594ZM13.0205 12.6074L12.6328 12.7949L16.6602 14.7471L20.6855 12.7949L16.6602 10.8428L13.0205 12.6074ZM2.01953 12.7949L6.04395 14.7461L10.0703 12.7949L10.0312 12.7764L6.04395 10.8438L2.01953 12.7949ZM6.60547 9.87109L10.793 11.9014V6.23047L6.60547 4.20117V9.87109ZM11.9131 6.22949V11.9014L16.1006 9.87109V4.20117L11.9131 6.22949ZM7.32715 3.30566L11.3516 5.25781L15.3779 3.30566L11.3516 1.35449L7.32715 3.30566ZM17.2197 9.87012L22.2119 12.293L22.3682 12.3682L22.3535 12.3975C22.3853 12.428 22.4146 12.4615 22.4385 12.499C22.4942 12.5864 22.5247 12.6874 22.5264 12.791V19.7119C22.5265 19.8168 22.4968 19.9198 22.4414 20.0088C22.386 20.0977 22.307 20.1697 22.2129 20.2158H22.2119L16.9053 22.7861C16.8293 22.8229 16.7456 22.8428 16.6611 22.8428C16.5768 22.8427 16.4939 22.8228 16.418 22.7861L11.3516 20.333L6.28809 22.7861C6.2122 22.8228 6.12922 22.8427 6.04492 22.8428C5.96047 22.8428 5.8768 22.8229 5.80078 22.7861L0.494141 20.2158V20.2148C0.39947 20.1693 0.318781 20.0986 0.262695 20.0098C0.206548 19.9207 0.176931 19.8172 0.176758 19.7119V12.792C0.178059 12.6875 0.208392 12.5851 0.264648 12.4971C0.320095 12.4105 0.399012 12.3377 0.495117 12.292L0.49707 12.291L0.501953 12.2881C0.504172 12.287 0.506582 12.2862 0.508789 12.2852H0.509766L5.48633 9.87012V3.30469C5.48694 3.20004 5.51642 3.09729 5.57227 3.00879C5.5917 2.97801 5.61486 2.95005 5.63965 2.92383L5.61719 2.89062L5.80078 2.80176L11.1084 0.230469C11.1843 0.193851 11.2673 0.17482 11.3516 0.174805C11.436 0.1748 11.5197 0.19374 11.5957 0.230469L16.9053 2.80176L17.0859 2.88965L17.0635 2.92188C17.0892 2.94877 17.1137 2.97704 17.1338 3.00879C17.1896 3.09728 17.2191 3.20005 17.2197 3.30469V9.87012Z" fill="#7351FD" stroke="#7351FD" stroke-width="0.35"/>
<rect x="11.3516" y="9.50781" width="15" height="15" rx="7.5" fill="#F3F3FF"/>
<path d="M23.1016 22.6328V21.3828C23.1016 20.7198 22.8382 20.0839 22.3693 19.615C21.9005 19.1462 21.2646 18.8828 20.6016 18.8828H16.8516C16.1885 18.8828 15.5526 19.1462 15.0838 19.615C14.615 20.0839 14.3516 20.7198 14.3516 21.3828V22.6328" stroke="#7351FD" stroke-width="1.3" stroke-linecap="round" stroke-linejoin="round"/>
<path d="M18.7266 16.3828C20.1073 16.3828 21.2266 15.2635 21.2266 13.8828C21.2266 12.5021 20.1073 11.3828 18.7266 11.3828C17.3459 11.3828 16.2266 12.5021 16.2266 13.8828C16.2266 15.2635 17.3459 16.3828 18.7266 16.3828Z" stroke="#7351FD" stroke-width="1.3" stroke-linecap="round" stroke-linejoin="round"/>
</svg>