<svg width="20" height="19" viewBox="0 0 20 19" fill="none" xmlns="http://www.w3.org/2000/svg">
<path d="M18.4324 9.15074C18.4324 9.01941 18.4851 8.71404 18.9728 8.71404H19.8066C20.1672 8.71404 19.913 8.41185 19.913 8.41185L17.6396 4.82533C17.6319 4.8167 17.5166 4.67912 17.4046 4.84515L15.1584 8.39765C15.1584 8.39765 14.8766 8.71404 15.263 8.71404H16.1065C16.3576 8.71404 16.646 8.77482 16.646 9.24935C16.646 13.328 13.3131 16.6463 9.21635 16.6463C5.11934 16.6463 1.7861 13.3133 1.7861 9.21629C1.7861 5.11934 5.11934 1.78616 9.21635 1.78616C10.3116 1.78616 11.3659 2.01871 12.3501 2.47728C12.468 2.53252 12.5965 2.56113 12.7266 2.56106C13.0727 2.56106 13.3909 2.3585 13.537 2.0449C13.7449 1.59848 13.551 1.06613 13.1047 0.858175C11.8824 0.288785 10.5743 0 9.2164 0C4.1345 0 0 4.13438 0 9.21629C0 14.2982 4.1345 18.4326 9.2164 18.4326C14.2781 18.4326 18.4124 14.3146 18.4321 9.25287C18.432 9.25264 18.4324 9.17624 18.4324 9.15074Z" fill="#7351FD"/>
<path d="M9.95447 8.42977C8.98661 8.04181 8.70676 7.80705 8.70676 7.38336C8.70676 7.04424 8.96367 6.64826 9.68765 6.64826C10.328 6.64826 10.8192 6.90068 10.8237 6.90295C10.875 6.93049 10.9324 6.94501 10.9906 6.94521C11.131 6.94521 11.2548 6.86041 11.3063 6.72917L11.4822 6.2793C11.5434 6.11554 11.4504 5.97262 11.332 5.92146C10.9377 5.74977 10.167 5.61696 10.1591 5.61557C10.1467 5.61344 10.1037 5.60417 10.1037 5.5537L10.101 4.90133C10.101 4.70484 9.9371 4.54492 9.73552 4.54492H9.42017C9.21873 4.54492 9.05478 4.70484 9.05478 4.90142L9.05557 5.58739C9.05557 5.6399 8.99861 5.6627 8.97785 5.66766C8.00503 5.89936 7.39709 6.61189 7.39709 7.51084C7.39709 8.63126 8.32325 9.13762 9.32332 9.51766C10.1228 9.83152 10.4489 10.1499 10.4489 10.6166C10.4489 11.1246 9.98691 11.4794 9.3254 11.4794C8.76042 11.4794 7.99572 11.1213 7.98802 11.1176C7.93993 11.0946 7.8873 11.0827 7.83399 11.0827C7.68829 11.0827 7.56155 11.1707 7.511 11.307L7.34297 11.7617C7.28323 11.9315 7.37517 12.0694 7.49288 12.1307C7.96244 12.3753 8.87132 12.5187 8.91159 12.5249C8.92243 12.5266 8.97785 12.546 8.97785 12.5965V13.2795C8.97785 13.4759 9.14185 13.6358 9.34338 13.6358H9.66962C9.87115 13.6358 10.0352 13.4759 10.0352 13.2795V12.5607C10.0352 12.4935 10.0848 12.4876 10.0949 12.4852C11.1312 12.2525 11.7697 11.4942 11.7697 10.5422C11.7697 9.56418 11.2267 8.93243 9.95447 8.42977Z" fill="#7351FD"/>
</svg>
